<svg width="70" height="70" viewBox="0 0 70 70" fill="none" xmlns="http://www.w3.org/2000/svg">
<path d="M25.6521 49.8357C24.3297 51.7644 22.9134 53.627 21.4083 55.4168C10.6458 55.1105 6.5625 48.1251 6.5625 48.1251C6.71395 38.2273 9.11253 28.4934 13.5771 19.6584C17.5003 16.5893 22.2806 14.8158 27.2563 14.5834L28.7146 17.9522C30.7976 17.6643 32.8972 17.5133 35 17.5001C37.1122 17.5072 39.2216 17.6534 41.3146 17.9376L42.7729 14.5688C47.7534 14.8138 52.5343 16.6027 56.4521 19.6876C60.9022 28.5161 63.2907 38.2395 63.4375 48.1251C63.4375 48.1251 59.3542 55.1105 48.5917 55.4168C47.1084 53.6364 45.7163 51.7819 44.4208 49.8605M53.8417 45.6313C48.2417 48.4678 42.824 51.3043 35 51.3043C27.176 51.3043 21.7583 48.4678 16.1583 45.6313" stroke="#001641" stroke-linecap="round" stroke-linejoin="round"/>
<path d="M26.027 43.1375C28.7252 43.1375 30.9124 40.9503 30.9124 38.2521C30.9124 35.554 28.7252 33.3667 26.027 33.3667C23.3289 33.3667 21.1416 35.554 21.1416 38.2521C21.1416 40.9503 23.3289 43.1375 26.027 43.1375Z" stroke="#001641" stroke-linecap="round" stroke-linejoin="round"/>
<path d="M43.9733 43.1375C46.6714 43.1375 48.8587 40.9503 48.8587 38.2521C48.8587 35.554 46.6714 33.3667 43.9733 33.3667C41.2752 33.3667 39.0879 35.554 39.0879 38.2521C39.0879 40.9503 41.2752 43.1375 43.9733 43.1375Z" stroke="#001641" stroke-linecap="round" stroke-linejoin="round"/>
</svg>
