<svg width="70" height="70" viewBox="0 0 70 70" fill="none" xmlns="http://www.w3.org/2000/svg">
<path d="M64.1666 13.8335C64.1666 10.0623 64.1666 8.17664 62.995 7.00507C61.8234 5.8335 59.9378 5.8335 56.1666 5.8335H13.8332C10.062 5.8335 8.1764 5.8335 7.00482 7.00507C5.83325 8.17664 5.83325 10.0623 5.83325 13.8335V56.1668C5.83325 59.9381 5.83325 61.8237 7.00482 62.9953C8.1764 64.1668 10.062 64.1668 13.8333 64.1668H56.1666C59.9378 64.1668 61.8234 64.1668 62.995 62.9953C64.1666 61.8237 64.1666 59.9381 64.1666 56.1668V13.8335Z" stroke="#001641" stroke-width="1.5" stroke-miterlimit="10"/>
<path d="M46.2384 64.1665V40.181H53.6913L55.4167 33.9124L46.2384 33.9124V28.7931C46.2384 26.7384 47.7542 25.7534 49.9088 25.4329C52.1298 25.1017 55.4167 25.2078 55.4167 25.2078V17.4998C55.4167 17.4998 49.6955 17.5463 46.2384 17.9906C43.8363 18.2996 41.7921 19.1011 39.9065 20.52C38.0727 21.9001 37.3711 23.8163 37.3293 25.9502C37.2875 28.084 37.3293 25.5387 37.3293 33.9124L29.1668 33.9124L29.1667 40.181H37.3293V64.1665" stroke="#001641" stroke-width="1.5" stroke-miterlimit="10" stroke-linecap="round" stroke-linejoin="round"/>
</svg>
