<svg width="70" height="70" viewBox="0 0 70 70" fill="none" xmlns="http://www.w3.org/2000/svg">
<path d="M26.2499 64.1668H43.7499C58.3332 64.1668 64.1666 58.3335 64.1666 43.7502V26.2502C64.1666 11.6668 58.3332 5.8335 43.7499 5.8335H26.2499C11.6666 5.8335 5.83325 11.6668 5.83325 26.2502V43.7502C5.83325 58.3335 11.6666 64.1668 26.2499 64.1668Z" stroke="#001641" stroke-width="1.5" stroke-linecap="round" stroke-linejoin="round"/>
<path d="M35.0001 45.2082C40.638 45.2082 45.2084 40.6377 45.2084 34.9998C45.2084 29.3619 40.638 24.7915 35.0001 24.7915C29.3622 24.7915 24.7917 29.3619 24.7917 34.9998C24.7917 40.6377 29.3622 45.2082 35.0001 45.2082Z" stroke="#001641" stroke-width="1.5" stroke-linecap="round" stroke-linejoin="round"/>
<path d="M51.4386 20.4168H51.4723" stroke="#001641" stroke-width="2" stroke-linecap="round" stroke-linejoin="round"/>
</svg>
