<svg width="70" height="70" viewBox="0 0 70 70" fill="none" xmlns="http://www.w3.org/2000/svg">
<path d="M11.0515 17.1322L11.0303 17.1304H11.0091H10.9163H10.9012L10.8862 17.1313C9.94441 17.1881 9.00104 17.0501 8.11499 16.726C7.22893 16.4018 6.41922 15.8985 5.73641 15.2474C5.0536 14.5963 4.51236 13.8114 4.14648 12.9418C3.78061 12.0721 3.59795 11.1364 3.60993 10.193C3.6219 9.24958 3.82825 8.31878 4.21609 7.4587C4.60392 6.59862 5.16491 5.82773 5.86403 5.19418C6.56315 4.56063 7.38538 4.07802 8.27938 3.77648C9.17337 3.47495 10.1199 3.36096 11.06 3.44165L11.0994 3.44503L11.1388 3.44218C12.0835 3.37376 13.0322 3.50153 13.9251 3.81747C14.8181 4.1334 15.636 4.63067 16.3274 5.27799C17.0189 5.92531 17.569 6.70869 17.943 7.57888C18.3171 8.44906 18.5071 9.38723 18.5011 10.3344C18.495 11.2816 18.2931 12.2172 17.9079 13.0826C17.5228 13.9479 16.9628 14.7242 16.2631 15.3627C15.5635 16.0011 14.7393 16.4879 13.8424 16.7924C12.9455 17.097 11.9953 17.2126 11.0515 17.1322Z" stroke="#001641"/>
<path d="M4.96558 66.5584V28.0161H17.1464V66.5584H4.96558Z" stroke="#001641"/>
<path d="M66.5738 42.3445V66.5584H54.393V48.9349C54.393 47.0544 53.646 45.2509 52.3163 43.9212C50.9866 42.5915 49.1831 41.8445 47.3027 41.8445C45.4222 41.8445 43.6187 42.5915 42.289 43.9212C40.9593 45.2509 40.2123 47.0544 40.2123 48.9349V66.5584H28.0315V28.0161H40.2123V33.1292V34.571L41.1049 33.4388C42.4334 31.7538 44.1256 30.3908 46.055 29.4518C47.9842 28.5129 50.1006 28.0221 52.2461 28.0161C54.1275 28.0162 55.9905 28.3868 57.7287 29.1068C59.4671 29.8269 61.0466 30.8823 62.3771 32.2128C63.7076 33.5433 64.7631 35.1229 65.4831 36.8613C66.2032 38.5997 66.5738 40.4629 66.5738 42.3445Z" stroke="#001641"/>
</svg>
