<svg width="613" height="75" viewBox="0 0 613 75" fill="none" xmlns="http://www.w3.org/2000/svg">
<path d="M533.923 56.6559V71.55H530.991L530.62 56.6559H533.923Z" fill="#878D91"/>
<path d="M612.989 57.5182V69.7157H612.734C612.479 69.7079 612.199 69.7 611.894 69.6844V57.8553L612.989 57.5182Z" fill="#878D91"/>
<path d="M528.923 56.1855L528.915 56.1777V56.1698C528.808 56.1149 528.701 56.0601 528.586 56.0052C527.564 55.6289 526.609 55.0959 525.67 54.5785C525.217 54.3277 524.789 54.0846 524.361 53.873C524.278 53.8338 524.204 53.7946 524.122 53.7476C523.619 53.4967 523.117 53.238 522.614 52.9872C520.481 51.9211 518.332 50.8393 516.174 49.7575C512.962 48.1505 509.741 46.5513 506.521 44.9443C506.513 44.9365 505.343 44.3642 503.35 43.3295C503.004 43.1492 502.634 42.9611 502.247 42.7572C496.407 39.7079 486.005 34.0873 475.199 27.3457C475.035 27.2438 470.999 24.704 465.299 19.1069C465.184 18.9893 462.376 16.2065 459.962 11.3463C459.831 11.0876 459.707 10.8289 459.592 10.5702C459.509 10.8524 459.444 11.1346 459.378 11.409C458.694 14.38 458.908 16.7865 458.991 17.6802L458.999 17.7821C459.015 17.9546 458.982 18.3152 458.768 20.7139C458.406 24.7823 457.656 33.2642 456.759 46.3318C456.264 53.5673 455.474 60.9595 454.403 68.336C461.717 68.6182 469.203 68.9318 476.657 69.2688C482.274 69.5197 486.252 69.7078 489.851 69.8803C493.772 70.0684 497.165 70.2252 501.761 70.429C510.787 70.8131 520.053 71.1502 529.319 71.4246L528.923 56.1855ZM463.043 26.7108L464.278 26.4677L463.99 30.0267L462.796 30.2383L463.043 26.7108ZM460.959 67.5834H459.534C459.897 63.8913 460.259 60.2069 460.613 56.5226H461.832L460.959 67.5834ZM461.873 53.6143H460.621L460.975 50.1651H462.194L461.873 53.6143ZM463.199 41.6755L461.914 41.9185L462.12 38.3752L463.389 38.1793L463.199 41.6755ZM465.588 67.9676H463.636L464.55 56.358H466.617L465.588 67.9676ZM466.601 53.4262H464.921L465.176 49.9456H466.856L466.601 53.4262ZM467.688 41.4089L466.032 41.6676L466.214 37.9127L467.91 37.7324L467.688 41.4089ZM468.841 29.3447L467.111 29.525L467.21 25.9425L468.94 25.8014L468.841 29.3447ZM472.069 68.289H469.327C469.656 64.3067 469.978 60.3323 470.307 56.358H472.819L472.069 68.289ZM472.58 53.4262H470.529L470.628 49.8124H472.811L472.58 53.4262ZM473.7 40.9464L471.617 41.1738L471.724 37.4502L473.923 37.1915L473.7 40.9464ZM478.543 37.0112H481.154V41.0091H478.543V37.0112ZM477.374 49.6007H480.133L479.96 53.3399H477.374V49.6007ZM481.187 68.6104L476.212 68.4536L477.159 56.358H482.175L481.187 68.6104ZM488.031 66.1567H484.844L485.008 62.6762H488.295L488.031 66.1567ZM488.781 53.2459L485.849 53.3399V49.7105H488.781V53.2459ZM498.87 66.4546H495.584V62.6841H499.043L498.87 66.4546ZM500.064 53.2537H496.127V49.5066H500.064V53.2537ZM514.222 66.8701H509.989V62.8408H514.222V66.8701ZM526.452 67.1601H522.079V62.833H526.683L526.452 67.1601Z" fill="#878D91"/>
<path d="M612.52 55.9033C611.532 55.872 610.115 55.7074 609.72 55.6133C609.547 55.5506 609.365 55.4879 609.192 55.433C609.069 55.3938 608.945 55.3468 608.83 55.3076C608.665 55.2449 608.501 55.19 608.328 55.1273C608.163 55.0646 607.998 55.0097 607.825 54.947C607.339 54.7745 606.837 54.5864 606.31 54.3982C606.162 54.3434 606.013 54.2885 605.865 54.2336L603.823 53.4732C598.008 51.2862 594.796 49.8673 590.727 48.0643C587.663 46.7082 584.188 45.1717 578.842 42.9846C578.521 42.8514 570.755 39.6687 561.234 36.2039C559.117 35.4278 556.49 34.495 553.072 33.3818L553.006 33.3583C549.884 32.3471 546.936 31.3907 543.205 30.4578C539.202 29.4545 536.336 28.9763 532.366 28.3178C526.749 27.385 523.356 26.8205 518.694 26.6167C515.63 26.4835 512.534 26.5305 509.453 26.7657C509.363 26.7735 509.272 26.7892 509.165 26.8049C509.066 26.8205 508.967 26.8441 508.852 26.8676C508.745 26.8911 508.63 26.9224 508.514 26.9538C508.457 26.9695 508.399 26.9852 508.341 27.0087C508.168 27.0635 507.987 27.1263 507.798 27.2125C507.617 27.2909 507.427 27.385 507.238 27.5025C507.172 27.5417 507.114 27.5809 507.048 27.6201C506.925 27.6985 506.801 27.7847 506.678 27.8866C506.282 28.1924 505.236 29.0076 504.965 30.3638C504.742 31.4769 505.138 32.4098 505.599 33.2564C506.785 35.4121 508.383 36.7526 509.346 37.5522L513.975 41.409H513.983L514.016 41.4403L514.033 41.456L514.304 41.6755L514.321 41.6833C516.108 42.9689 517.953 44.2624 519.724 45.5009C521.19 46.5279 522.656 47.5548 524.113 48.5974C524.912 49.1696 525.785 49.7419 526.708 50.3533C527.507 50.8785 528.339 51.4194 529.138 51.9838C530.282 52.7756 531.641 53.779 532.761 54.9078H530.719C530.241 54.8529 529.763 54.7275 529.286 54.5629C529.278 54.555 529.278 54.555 529.269 54.555C529.245 54.5472 529.228 54.5394 529.212 54.5315L528.89 54.3747V54.4139C528.092 54.0925 527.301 53.6535 526.527 53.2224C526.074 52.9715 525.604 52.7129 525.151 52.4855C522.45 51.1215 519.707 49.7497 516.956 48.37C513.736 46.763 510.524 45.156 507.295 43.5569C507.287 43.549 506.126 42.9768 504.157 41.9577C503.812 41.7774 503.441 41.5893 503.054 41.3855C497.239 38.3439 486.886 32.7547 476.114 26.0366C476.072 26.0131 472.061 23.4811 466.502 18.0251C466.477 17.9938 463.768 15.3207 461.47 10.6957C460.712 9.16705 460.498 8.3753 460.687 7.68547C460.704 7.6306 460.72 7.58356 460.737 7.52869C461.832 4.56553 467.82 4.53418 471.04 4.51066L471.617 4.50282C479.367 4.42443 487.282 5.99224 494.727 7.60708C513.365 11.6442 533.478 18.2995 556.218 27.9729C563.284 30.9752 576.446 36.5723 591.386 43.9645C595.315 45.9086 599.054 47.8997 602.521 49.883C604.457 50.9961 606.367 52.1406 608.204 53.2929C608.698 53.6065 609.225 53.8887 609.794 54.1866C610.774 54.6961 611.787 55.237 612.52 55.9033Z" fill="#878D91"/>
<path d="M608.921 57.0321C608.764 56.9772 608.608 56.9224 608.443 56.8675C608.056 56.7342 607.652 56.5853 607.232 56.4364C606.746 56.2639 606.236 56.0758 605.709 55.8876C605.56 55.8328 605.404 55.7779 605.247 55.723L603.197 54.9626C597.341 52.7599 594.104 51.3332 590.011 49.5223C586.955 48.174 583.488 46.6376 578.167 44.4583C577.846 44.3251 570.112 41.1581 560.616 37.7011C558.507 36.9329 555.905 36.0078 552.512 34.9104L552.446 34.8869C549.217 33.8443 546.425 32.9349 542.76 32.0178C538.823 31.0301 535.99 30.5597 532.061 29.9091C526.502 28.9841 523.15 28.4275 518.595 28.2237C515.597 28.0983 512.575 28.1453 509.601 28.3648C509.14 28.4275 508.407 28.6078 507.724 29.133C507.411 29.376 506.752 29.8856 506.604 30.6773C506.497 31.1868 506.636 31.7042 507.081 32.5273C508.119 34.4165 509.511 35.5845 510.442 36.3528L515.284 40.382C517.08 41.6755 518.925 42.9611 520.704 44.2153C522.17 45.2501 523.644 46.277 525.102 47.3196C525.876 47.8761 526.733 48.4405 527.639 49.0363C528.042 49.3028 528.454 49.5694 528.866 49.8516C529.261 50.1181 529.665 50.3846 530.06 50.659C530.076 50.6747 530.093 50.6825 530.109 50.6903C531.715 51.8113 533.717 53.3086 535.084 55.0645C535.109 55.0959 535.133 55.1194 535.15 55.1508L535.595 55.7387V66.7212C538.502 66.8387 541.376 66.9485 544.243 67.0504V60.9281H551.103V67.2777C551.853 67.3013 552.61 67.3248 553.36 67.3483C555.641 67.4188 557.882 67.4816 560.089 67.5443V61.2182H566.999V67.7324C567.361 67.7402 567.732 67.7559 568.094 67.7638C579.872 68.0773 590.044 68.3438 596.748 68.8612L596.929 68.8769C598.016 68.9631 601.335 69.214 605.717 69.4413C607.191 69.5197 608.698 69.5824 610.197 69.6373V57.5025C609.818 57.3457 609.382 57.2046 608.921 57.0321ZM531.65 44.8111H527.597V35.0907H531.65V44.8111ZM538 44.8111H533.272V35.0907H538V44.8111ZM551.111 56.0836H544.457V48.0329H551.111V56.0836ZM551.111 44.8111H544.457V36.5409H551.111V44.8111ZM567.015 56.4442H560.105V48.0329H567.015V56.4442ZM580.737 67.3091H574.971V61.4063H580.737V67.3091ZM581.074 56.4442H574.98V48.0329H581.074V56.4442ZM597.843 66.4076H593.017V62.9741H597.843V66.4076Z" fill="#878D91"/>
<path d="M28.3489 40.0229L47.6873 29.401C52.2419 26.9003 53.7985 21.366 51.1712 17.031C48.5439 12.7039 42.7292 11.2144 38.1746 13.7151L4.76074 32.0741L28.3489 40.0229Z" fill="#EA4335"/>
<path d="M42.9185 67.3342C46.2047 67.3342 49.4003 65.7115 51.1629 62.8032C53.7902 58.4761 52.2335 52.9339 47.679 50.4332L14.2733 32.0742C9.71878 29.5736 3.90409 31.0552 1.27678 35.3901C-1.35054 39.7251 0.206083 45.2595 4.76065 47.7601L38.1745 66.1191C39.6735 66.9422 41.3125 67.3342 42.9185 67.3342Z" fill="#4285F4"/>
<path d="M76.1595 67.3341C77.7738 67.3341 79.4127 66.9421 80.9035 66.119L114.317 47.76L91.0256 39.6466L71.3908 50.4331C66.8362 52.9338 65.2796 58.4681 67.9069 62.8031C69.6694 65.7114 72.8733 67.3341 76.1595 67.3341Z" fill="#FBBC04"/>
<path d="M109.549 48.9752C112.835 48.9752 116.03 47.3525 117.793 44.4442C120.42 40.1171 118.864 34.5749 114.309 32.0742L80.8952 13.7152C76.3406 11.2146 70.5259 12.6961 67.8986 17.0311C65.2713 21.3583 66.8279 26.9005 71.3825 29.4011L104.796 47.7601C106.304 48.5832 107.934 48.9752 109.549 48.9752Z" fill="#34A853"/>
<path d="M162.708 47.268C159.476 47.268 156.5 46.484 153.78 44.916C151.06 43.348 148.9 41.188 147.3 38.436C145.7 35.684 144.9 32.644 144.9 29.316C144.9 25.988 145.7 22.948 147.3 20.196C148.9 17.444 151.06 15.284 153.78 13.716C156.5 12.148 159.476 11.364 162.708 11.364C165.236 11.364 167.604 11.812 169.812 12.708C172.052 13.604 173.892 14.868 175.332 16.5L172.404 19.428C171.316 18.084 169.924 17.06 168.228 16.356C166.532 15.62 164.708 15.252 162.756 15.252C160.324 15.252 158.052 15.844 155.94 17.028C153.86 18.18 152.18 19.828 150.9 21.972C149.652 24.084 149.028 26.532 149.028 29.316C149.028 32.1 149.652 34.564 150.9 36.708C152.18 38.82 153.876 40.468 155.988 41.652C158.1 42.804 160.356 43.38 162.756 43.38C165.06 43.38 166.98 43.028 168.516 42.324C170.084 41.588 171.428 40.628 172.548 39.444C173.38 38.548 174.052 37.476 174.564 36.228C175.076 34.948 175.396 33.54 175.524 32.004H162.804V28.212H179.316C179.476 29.108 179.556 29.94 179.556 30.708C179.556 32.82 179.22 34.884 178.548 36.9C177.876 38.884 176.804 40.628 175.332 42.132C172.164 45.556 167.956 47.268 162.708 47.268ZM185.626 12.132H195.994C199.514 12.132 202.586 12.868 205.21 14.34C207.834 15.78 209.85 17.796 211.258 20.388C212.666 22.98 213.37 25.956 213.37 29.316C213.37 32.676 212.666 35.652 211.258 38.244C209.85 40.836 207.834 42.868 205.21 44.34C202.586 45.78 199.514 46.5 195.994 46.5H185.626V12.132ZM195.994 42.612C200.058 42.612 203.274 41.444 205.642 39.108C208.042 36.772 209.242 33.508 209.242 29.316C209.242 25.124 208.042 21.86 205.642 19.524C203.274 17.188 200.058 16.02 195.994 16.02H189.658V42.612H195.994ZM228.976 47.268C226.288 47.268 223.824 46.452 221.584 44.82C219.344 43.188 217.808 40.9 216.976 37.956L220.864 36.372C221.408 38.42 222.416 40.1 223.888 41.412C225.36 42.724 227.088 43.38 229.072 43.38C231.056 43.38 232.736 42.852 234.112 41.796C235.488 40.708 236.176 39.236 236.176 37.38C236.176 35.78 235.584 34.468 234.4 33.444C233.248 32.388 231.344 31.412 228.688 30.516L226.528 29.748C224.096 28.884 222.112 27.748 220.576 26.34C219.04 24.932 218.272 22.98 218.272 20.484C218.272 18.852 218.72 17.348 219.616 15.972C220.512 14.564 221.76 13.444 223.36 12.612C224.96 11.78 226.752 11.364 228.736 11.364C230.72 11.364 232.448 11.732 233.92 12.468C235.392 13.204 236.56 14.1 237.424 15.156C238.32 16.212 238.944 17.252 239.296 18.276L235.456 19.908C235.136 18.724 234.4 17.652 233.248 16.692C232.128 15.732 230.64 15.252 228.784 15.252C227.024 15.252 225.52 15.748 224.272 16.74C223.024 17.732 222.4 18.98 222.4 20.484C222.4 21.828 222.928 22.932 223.984 23.796C225.04 24.628 226.64 25.412 228.784 26.148L231.04 26.916C233.952 27.972 236.224 29.3 237.856 30.9C239.488 32.468 240.304 34.612 240.304 37.332C240.304 39.54 239.728 41.396 238.576 42.9C237.456 44.404 236.032 45.508 234.304 46.212C232.576 46.916 230.8 47.268 228.976 47.268ZM262.411 47.268C259.083 47.268 256.059 46.484 253.339 44.916C250.619 43.348 248.475 41.204 246.907 38.484C245.371 35.732 244.603 32.676 244.603 29.316C244.603 25.956 245.371 22.916 246.907 20.196C248.475 17.444 250.619 15.284 253.339 13.716C256.059 12.148 259.083 11.364 262.411 11.364C264.971 11.364 267.307 11.86 269.419 12.852C271.563 13.812 273.419 15.188 274.987 16.98L272.059 19.812C270.747 18.244 269.307 17.092 267.739 16.356C266.203 15.62 264.427 15.252 262.411 15.252C259.915 15.252 257.627 15.844 255.547 17.028C253.467 18.18 251.803 19.828 250.555 21.972C249.339 24.084 248.731 26.532 248.731 29.316C248.731 32.1 249.339 34.564 250.555 36.708C251.803 38.82 253.467 40.468 255.547 41.652C257.627 42.804 259.915 43.38 262.411 43.38C266.571 43.38 270.107 41.668 273.019 38.244L275.995 41.124C274.395 43.012 272.427 44.516 270.091 45.636C267.755 46.724 265.195 47.268 262.411 47.268ZM293.017 12.132H312.889V16.02H297.049V27.396H311.353V31.236H297.049V42.612H312.889V46.5H293.017V12.132ZM319.455 12.132H324.447L341.679 39.492H341.871L341.679 32.868V12.132H345.759V46.5H341.535L323.487 17.844H323.295L323.487 24.468V46.5H319.455V12.132ZM363.039 47.268C360.351 47.268 357.887 46.452 355.647 44.82C353.407 43.188 351.871 40.9 351.039 37.956L354.927 36.372C355.471 38.42 356.479 40.1 357.951 41.412C359.423 42.724 361.151 43.38 363.135 43.38C365.119 43.38 366.799 42.852 368.175 41.796C369.551 40.708 370.239 39.236 370.239 37.38C370.239 35.78 369.647 34.468 368.463 33.444C367.311 32.388 365.407 31.412 362.751 30.516L360.591 29.748C358.159 28.884 356.175 27.748 354.639 26.34C353.103 24.932 352.335 22.98 352.335 20.484C352.335 18.852 352.783 17.348 353.679 15.972C354.575 14.564 355.823 13.444 357.423 12.612C359.023 11.78 360.815 11.364 362.799 11.364C364.783 11.364 366.511 11.732 367.983 12.468C369.455 13.204 370.623 14.1 371.487 15.156C372.383 16.212 373.007 17.252 373.359 18.276L369.519 19.908C369.199 18.724 368.463 17.652 367.311 16.692C366.191 15.732 364.703 15.252 362.847 15.252C361.087 15.252 359.583 15.748 358.335 16.74C357.087 17.732 356.463 18.98 356.463 20.484C356.463 21.828 356.991 22.932 358.047 23.796C359.103 24.628 360.703 25.412 362.847 26.148L365.103 26.916C368.015 27.972 370.287 29.3 371.919 30.9C373.551 32.468 374.367 34.612 374.367 37.332C374.367 39.54 373.791 41.396 372.639 42.9C371.519 44.404 370.095 45.508 368.367 46.212C366.639 46.916 364.863 47.268 363.039 47.268ZM380.345 12.132H384.377V46.5H380.345V12.132ZM401.952 12.132H406.56L419.616 46.5H415.152L411.696 37.044H396.864L393.408 46.5H388.944L401.952 12.132ZM410.304 33.204L405.744 20.82L404.352 17.124H404.16L402.816 20.82L398.256 33.204H410.304Z" fill="#656C73"/>
</svg>
