<svg width="307" height="34" viewBox="0 0 307 34" fill="none" xmlns="http://www.w3.org/2000/svg">
<path d="M14.2852 17.0527L24.0299 11.7003C26.325 10.4402 27.1094 7.6514 25.7855 5.46697C24.4615 3.2865 21.5315 2.53597 19.2364 3.79607L2.39893 13.0473L14.2852 17.0527Z" fill="#EA4335"/>
<path d="M21.6269 30.8156C23.2829 30.8156 24.8931 29.9979 25.7813 28.5324C27.1052 26.352 26.3208 23.5592 24.0258 22.2991L7.19243 13.0479C4.89736 11.7878 1.9673 12.5344 0.643376 14.7188C-0.680546 16.9032 0.103847 19.692 2.39892 20.9521L19.2364 30.2034C19.9917 30.6181 20.8176 30.8156 21.6269 30.8156Z" fill="#4285F4"/>
<path d="M38.3771 30.8152C39.1905 30.8152 40.0164 30.6177 40.7676 30.2029L57.6051 20.9517L45.8683 16.8633L35.9741 22.2987C33.679 23.5588 32.8946 26.3476 34.2186 28.532C35.1067 29.9975 36.7212 30.8152 38.3771 30.8152Z" fill="#FBBC04"/>
<path d="M55.2024 21.5642C56.8583 21.5642 58.4686 20.7465 59.3567 19.281C60.6807 17.1005 59.8963 14.3078 57.6012 13.0477L40.7637 3.79644C38.4686 2.53635 35.5386 3.28292 34.2147 5.46735C32.8907 7.64782 33.6751 10.4406 35.9702 11.7007L52.8077 20.9519C53.5672 21.3667 54.3889 21.5642 55.2024 21.5642Z" fill="#34A853"/>
<path d="M79.984 25.884C78.368 25.884 76.88 25.492 75.52 24.708C74.16 23.924 73.08 22.844 72.28 21.468C71.48 20.092 71.08 18.572 71.08 16.908C71.08 15.244 71.48 13.724 72.28 12.348C73.08 10.972 74.16 9.892 75.52 9.108C76.88 8.324 78.368 7.932 79.984 7.932C81.248 7.932 82.432 8.156 83.536 8.604C84.656 9.052 85.576 9.684 86.296 10.5L84.832 11.964C84.288 11.292 83.592 10.78 82.744 10.428C81.896 10.06 80.984 9.876 80.008 9.876C78.792 9.876 77.656 10.172 76.6 10.764C75.56 11.34 74.72 12.164 74.08 13.236C73.456 14.292 73.144 15.516 73.144 16.908C73.144 18.3 73.456 19.532 74.08 20.604C74.72 21.66 75.568 22.484 76.624 23.076C77.68 23.652 78.808 23.94 80.008 23.94C81.16 23.94 82.12 23.764 82.888 23.412C83.672 23.044 84.344 22.564 84.904 21.972C85.32 21.524 85.656 20.988 85.912 20.364C86.168 19.724 86.328 19.02 86.392 18.252H80.032V16.356H88.288C88.368 16.804 88.408 17.22 88.408 17.604C88.408 18.66 88.24 19.692 87.904 20.7C87.568 21.692 87.032 22.564 86.296 23.316C84.712 25.028 82.608 25.884 79.984 25.884ZM91.4434 8.316H96.6274C98.3874 8.316 99.9234 8.684 101.235 9.42C102.547 10.14 103.555 11.148 104.259 12.444C104.963 13.74 105.315 15.228 105.315 16.908C105.315 18.588 104.963 20.076 104.259 21.372C103.555 22.668 102.547 23.684 101.235 24.42C99.9234 25.14 98.3874 25.5 96.6274 25.5H91.4434V8.316ZM96.6274 23.556C98.6594 23.556 100.267 22.972 101.451 21.804C102.651 20.636 103.251 19.004 103.251 16.908C103.251 14.812 102.651 13.18 101.451 12.012C100.267 10.844 98.6594 10.26 96.6274 10.26H93.4594V23.556H96.6274ZM113.118 25.884C111.774 25.884 110.542 25.476 109.422 24.66C108.302 23.844 107.534 22.7 107.118 21.228L109.062 20.436C109.334 21.46 109.838 22.3 110.574 22.956C111.31 23.612 112.174 23.94 113.166 23.94C114.158 23.94 114.998 23.676 115.686 23.148C116.374 22.604 116.718 21.868 116.718 20.94C116.718 20.14 116.422 19.484 115.83 18.972C115.254 18.444 114.302 17.956 112.974 17.508L111.894 17.124C110.678 16.692 109.686 16.124 108.918 15.42C108.15 14.716 107.766 13.74 107.766 12.492C107.766 11.676 107.99 10.924 108.438 10.236C108.886 9.532 109.51 8.972 110.31 8.556C111.11 8.14 112.006 7.932 112.998 7.932C113.99 7.932 114.854 8.116 115.59 8.484C116.326 8.852 116.91 9.3 117.342 9.828C117.79 10.356 118.102 10.876 118.278 11.388L116.358 12.204C116.198 11.612 115.83 11.076 115.254 10.596C114.694 10.116 113.95 9.876 113.022 9.876C112.142 9.876 111.39 10.124 110.766 10.62C110.142 11.116 109.83 11.74 109.83 12.492C109.83 13.164 110.094 13.716 110.622 14.148C111.15 14.564 111.95 14.956 113.022 15.324L114.15 15.708C115.606 16.236 116.742 16.9 117.558 17.7C118.374 18.484 118.782 19.556 118.782 20.916C118.782 22.02 118.494 22.948 117.918 23.7C117.358 24.452 116.646 25.004 115.782 25.356C114.918 25.708 114.03 25.884 113.118 25.884ZM129.836 25.884C128.172 25.884 126.66 25.492 125.3 24.708C123.94 23.924 122.868 22.852 122.084 21.492C121.316 20.116 120.932 18.588 120.932 16.908C120.932 15.228 121.316 13.708 122.084 12.348C122.868 10.972 123.94 9.892 125.3 9.108C126.66 8.324 128.172 7.932 129.836 7.932C131.116 7.932 132.284 8.18 133.34 8.676C134.412 9.156 135.34 9.844 136.124 10.74L134.66 12.156C134.004 11.372 133.284 10.796 132.5 10.428C131.732 10.06 130.844 9.876 129.836 9.876C128.588 9.876 127.444 10.172 126.404 10.764C125.364 11.34 124.532 12.164 123.908 13.236C123.3 14.292 122.996 15.516 122.996 16.908C122.996 18.3 123.3 19.532 123.908 20.604C124.532 21.66 125.364 22.484 126.404 23.076C127.444 23.652 128.588 23.94 129.836 23.94C131.916 23.94 133.684 23.084 135.14 21.372L136.628 22.812C135.828 23.756 134.844 24.508 133.676 25.068C132.508 25.612 131.228 25.884 129.836 25.884ZM145.139 8.316H155.075V10.26H147.155V15.948H154.307V17.868H147.155V23.556H155.075V25.5H145.139V8.316ZM158.358 8.316H160.854L169.47 21.996H169.566L169.47 18.684V8.316H171.51V25.5H169.398L160.374 11.172H160.278L160.374 14.484V25.5H158.358V8.316ZM180.15 25.884C178.806 25.884 177.574 25.476 176.454 24.66C175.334 23.844 174.566 22.7 174.15 21.228L176.094 20.436C176.366 21.46 176.87 22.3 177.606 22.956C178.342 23.612 179.206 23.94 180.198 23.94C181.19 23.94 182.03 23.676 182.718 23.148C183.406 22.604 183.75 21.868 183.75 20.94C183.75 20.14 183.454 19.484 182.862 18.972C182.286 18.444 181.334 17.956 180.006 17.508L178.926 17.124C177.71 16.692 176.718 16.124 175.95 15.42C175.182 14.716 174.798 13.74 174.798 12.492C174.798 11.676 175.022 10.924 175.47 10.236C175.918 9.532 176.542 8.972 177.342 8.556C178.142 8.14 179.038 7.932 180.03 7.932C181.022 7.932 181.886 8.116 182.622 8.484C183.358 8.852 183.942 9.3 184.374 9.828C184.822 10.356 185.134 10.876 185.31 11.388L183.39 12.204C183.23 11.612 182.862 11.076 182.286 10.596C181.726 10.116 180.982 9.876 180.054 9.876C179.174 9.876 178.422 10.124 177.798 10.62C177.174 11.116 176.862 11.74 176.862 12.492C176.862 13.164 177.126 13.716 177.654 14.148C178.182 14.564 178.982 14.956 180.054 15.324L181.182 15.708C182.638 16.236 183.774 16.9 184.59 17.7C185.406 18.484 185.814 19.556 185.814 20.916C185.814 22.02 185.526 22.948 184.95 23.7C184.39 24.452 183.678 25.004 182.814 25.356C181.95 25.708 181.062 25.884 180.15 25.884ZM188.803 8.316H190.819V25.5H188.803V8.316ZM199.606 8.316H201.91L208.438 25.5H206.206L204.478 20.772H197.062L195.334 25.5H193.102L199.606 8.316ZM203.782 18.852L201.502 12.66L200.806 10.812H200.71L200.038 12.66L197.758 18.852H203.782Z" fill="#656C73"/>
<path d="M267.114 26.3984V33.9119H265.635L265.448 26.3984H267.114Z" fill="#878D91"/>
<path d="M307 26.833V32.9861H306.871C306.742 32.9822 306.601 32.9782 306.447 32.9703V27.003L307 26.833Z" fill="#878D91"/>
<path d="M264.592 26.1609L264.588 26.1569V26.153C264.534 26.1253 264.48 26.0976 264.422 26.0699C263.907 25.8801 263.425 25.6112 262.951 25.3502C262.723 25.2237 262.507 25.1011 262.291 24.9943C262.249 24.9746 262.212 24.9548 262.17 24.9311C261.917 24.8045 261.663 24.674 261.41 24.5475C260.334 24.0097 259.249 23.464 258.161 22.9182C256.54 22.1076 254.916 21.3009 253.291 20.4902C253.287 20.4862 252.697 20.1976 251.692 19.6756C251.517 19.5846 251.33 19.4897 251.135 19.3869C248.189 17.8486 242.942 15.0133 237.491 11.6124C237.408 11.561 235.372 10.2798 232.497 7.45631C232.439 7.39699 231.022 5.99316 229.804 3.54139C229.738 3.4109 229.676 3.2804 229.617 3.1499C229.576 3.29226 229.543 3.43462 229.509 3.57303C229.165 5.07177 229.273 6.28579 229.314 6.7366L229.318 6.788C229.327 6.875 229.31 7.05691 229.202 8.26697C229.019 10.3193 228.641 14.5981 228.188 21.1901C227.939 24.8401 227.54 28.5692 227 32.2903C230.689 32.4327 234.466 32.5908 238.226 32.7609C241.06 32.8874 243.066 32.9823 244.882 33.0693C246.86 33.1642 248.572 33.2433 250.89 33.3461C255.444 33.5399 260.118 33.71 264.792 33.8484L264.592 26.1609ZM231.358 11.2921L231.982 11.1695L231.836 12.9649L231.234 13.0716L231.358 11.2921ZM230.307 31.9107H229.588C229.771 30.0481 229.954 28.1895 230.133 26.3309H230.748L230.307 31.9107ZM230.768 24.8638H230.137L230.315 23.1239H230.93L230.768 24.8638ZM231.437 18.8412L230.789 18.9638L230.893 17.1764L231.533 17.0775L231.437 18.8412ZM232.642 32.1044H231.657L232.119 26.2479H233.161L232.642 32.1044ZM233.153 24.7689H232.306L232.434 23.0131H233.282L233.153 24.7689ZM233.702 18.7067L232.867 18.8372L232.958 16.9431L233.814 16.8521L233.702 18.7067ZM234.283 12.6208L233.411 12.7118L233.461 10.9046L234.333 10.8334L234.283 12.6208ZM235.912 32.2666H234.528C234.695 30.2577 234.857 28.2528 235.023 26.2479H236.29L235.912 32.2666ZM236.17 24.7689H235.135L235.185 22.9459H236.286L236.17 24.7689ZM236.735 18.4734L235.683 18.5881L235.737 16.7097L236.847 16.5792L236.735 18.4734ZM239.178 16.4883H240.495V18.5051H239.178V16.4883ZM238.588 22.8392H239.979L239.892 24.7254H238.588V22.8392ZM240.511 32.4287L238.002 32.3496L238.48 26.2479H241.01L240.511 32.4287ZM243.964 31.191H242.356L242.439 29.4352H244.097L243.964 31.191ZM244.342 24.678L242.863 24.7254V22.8945H244.342V24.678ZM249.432 31.3412H247.774V29.4391H249.519L249.432 31.3412ZM250.034 24.6819H248.048V22.7917H250.034V24.6819ZM257.176 31.5508H255.041V29.5182H257.176V31.5508ZM263.346 31.6971H261.14V29.5143H263.462L263.346 31.6971Z" fill="#878D91"/>
<path d="M306.763 26.0187C306.265 26.0029 305.55 25.9198 305.35 25.8724C305.263 25.8407 305.172 25.8091 305.085 25.7814C305.022 25.7617 304.96 25.7379 304.902 25.7182C304.819 25.6865 304.736 25.6588 304.648 25.6272C304.565 25.5956 304.482 25.5679 304.395 25.5363C304.15 25.4493 303.896 25.3543 303.63 25.2594C303.556 25.2318 303.481 25.2041 303.406 25.1764L302.376 24.7928C299.442 23.6895 297.822 22.9738 295.77 22.0642C294.224 21.3801 292.471 20.605 289.774 19.5018C289.612 19.4345 285.694 17.829 280.891 16.0811C279.824 15.6897 278.498 15.2191 276.774 14.6575L276.741 14.6457C275.166 14.1356 273.679 13.6531 271.797 13.1825C269.777 12.6764 268.331 12.4351 266.329 12.103C263.495 11.6324 261.784 11.3477 259.432 11.2448C257.886 11.1776 256.324 11.2013 254.77 11.32C254.725 11.3239 254.679 11.3318 254.625 11.3397C254.575 11.3477 254.525 11.3595 254.467 11.3714C254.413 11.3832 254.355 11.3991 254.297 11.4149C254.268 11.4228 254.239 11.4307 254.209 11.4426C254.122 11.4702 254.031 11.5019 253.935 11.5454C253.844 11.5849 253.748 11.6324 253.653 11.6917C253.619 11.7115 253.59 11.7312 253.557 11.751C253.495 11.7906 253.433 11.8341 253.37 11.8855C253.171 12.0397 252.643 12.451 252.506 13.1351C252.394 13.6966 252.593 14.1672 252.826 14.5943C253.424 15.6817 254.23 16.358 254.716 16.7613L257.051 18.7069H257.055L257.072 18.7227L257.08 18.7306L257.218 18.8414L257.226 18.8453C258.127 19.4938 259.058 20.1463 259.951 20.7711C260.691 21.2892 261.43 21.8072 262.166 22.3331C262.569 22.6218 263.009 22.9105 263.475 23.2189C263.878 23.4839 264.297 23.7568 264.7 24.0415C265.278 24.4409 265.963 24.947 266.528 25.5165H265.498C265.257 25.4888 265.016 25.4255 264.775 25.3425C264.771 25.3385 264.771 25.3385 264.767 25.3385C264.754 25.3346 264.746 25.3306 264.738 25.3267L264.576 25.2476V25.2674C264.173 25.1052 263.774 24.8838 263.383 24.6663C263.155 24.5397 262.918 24.4092 262.689 24.2946C261.327 23.6065 259.943 22.9144 258.555 22.2185C256.931 21.4078 255.31 20.5971 253.682 19.7904C253.678 19.7865 253.092 19.4978 252.099 18.9837C251.924 18.8928 251.737 18.7979 251.542 18.695C248.609 17.1607 243.386 14.3412 237.952 10.9522C237.931 10.9403 235.908 9.66306 233.103 6.91075C233.091 6.89494 231.724 5.54647 230.565 3.21334C230.182 2.44222 230.074 2.04282 230.17 1.69482C230.178 1.66714 230.187 1.64342 230.195 1.61574C230.748 0.12095 233.768 0.105133 235.393 0.0932693L235.683 0.089314C239.593 0.0497694 243.586 0.840661 247.342 1.65528C256.744 3.69183 266.89 7.04916 278.361 11.929C281.926 13.4435 288.565 16.267 296.102 19.9961C298.084 20.9768 299.97 21.9812 301.719 22.9817C302.696 23.5432 303.659 24.1206 304.586 24.7019C304.835 24.86 305.101 25.0024 305.388 25.1527C305.882 25.4097 306.393 25.6826 306.763 26.0187Z" fill="#878D91"/>
<path d="M304.947 26.5877C304.868 26.56 304.789 26.5323 304.706 26.5046C304.511 26.4374 304.308 26.3623 304.096 26.2871C303.85 26.2001 303.593 26.1052 303.327 26.0103C303.252 25.9826 303.173 25.9549 303.094 25.9273L302.06 25.5437C299.106 24.4325 297.473 23.7128 295.408 22.7993C293.867 22.1191 292.117 21.344 289.433 20.2447C289.271 20.1775 285.37 18.5799 280.58 16.836C279.516 16.4484 278.203 15.9818 276.491 15.4282L276.458 15.4163C274.829 14.8904 273.421 14.4317 271.572 13.969C269.586 13.4707 268.157 13.2334 266.175 12.9052C263.371 12.4386 261.68 12.1578 259.382 12.055C257.87 11.9917 256.345 12.0155 254.845 12.1262C254.612 12.1578 254.243 12.2488 253.898 12.5137C253.74 12.6363 253.407 12.8934 253.333 13.2928C253.279 13.5498 253.349 13.8108 253.574 14.226C254.097 15.179 254.799 15.7683 255.269 16.1558L257.712 18.1884C258.618 18.8409 259.548 19.4894 260.446 20.1221C261.185 20.6441 261.929 21.1621 262.664 21.6881C263.055 21.9688 263.487 22.2536 263.944 22.5541C264.148 22.6886 264.355 22.823 264.563 22.9654C264.762 23.0998 264.966 23.2343 265.165 23.3727C265.174 23.3806 265.182 23.3845 265.19 23.3885C266.001 23.954 267.01 24.7093 267.7 25.5951C267.712 25.6109 267.725 25.6228 267.733 25.6386L267.957 25.9352V31.4754C269.424 31.5347 270.874 31.59 272.32 31.6415V28.553H275.781V31.7561C276.159 31.768 276.541 31.7799 276.919 31.7917C278.07 31.8273 279.2 31.859 280.314 31.8906V28.6993H283.8V31.9855C283.982 31.9894 284.169 31.9974 284.352 32.0013C290.293 32.1595 295.425 32.2939 298.807 32.5549L298.898 32.5628C299.446 32.6063 301.121 32.7329 303.331 32.8476C304.075 32.8871 304.835 32.9187 305.591 32.9464V26.8249C305.4 26.7458 305.18 26.6747 304.947 26.5877ZM265.967 20.4227H263.923V15.5191H265.967V20.4227ZM269.171 20.4227H266.786V15.5191H269.171V20.4227ZM275.785 26.1092H272.428V22.0479H275.785V26.1092ZM275.785 20.4227H272.428V16.2507H275.785V20.4227ZM283.808 26.2911H280.322V22.0479H283.808V26.2911ZM290.73 31.772H287.821V28.7942H290.73V31.772ZM290.9 26.2911H287.826V22.0479H290.9V26.2911ZM299.359 31.3172H296.924V29.5851H299.359V31.3172Z" fill="#878D91"/>
</svg>
